# xmcd
#
# Track frame offsets:
#	183
#	14845
#	34313
#	54880
#	69188
#	83605
#	101890
#	124350
#	140008
#	158818
#	172655
#	190348
#	210163
#	227553
#
# Disc length: 3259 seconds
#
# Revision: 0
# Processed by: cddbd v1.4PL0 Copyright (c) Steve Scherf et al.
# Submitted via: EasyCDDAExtractor 4.5.0.2
#
DISCID=b50cb90e
DTITLE=Rosa Maria - Personalidade
DYEAR=1994
DGENRE=Soul
TTITLE0=CALIFORNIA DREAMIN´
TTITLE1=LIGHT MY FIRE 
TTITLE2=CALLING YOU
TTITLE3=MONDAY, MONDAY
TTITLE4=SMOKE GETS IN YOUR EYES
TTITLE5=MEDITATION
TTITLE6=CAN´T TAKE MY EYES OFF OF YOU
TTITLE7=FEVER
TTITLE8=BROTHER JOHN - IKO IKO
TTITLE9=THE MORE I SEE YOU
TTITLE10=A WHITER SHADE OF PALE
TTITLE11=SOPHISTICATED LADY
TTITLE12=WHEN A MAN LOVES A WOMAN
TTITLE13=DO YOU WANNA DANCE
EXTD=
EXTT0=
EXTT1=
EXTT2=
EXTT3=
EXTT4=
EXTT5=
EXTT6=
EXTT7=
EXTT8=
EXTT9=
EXTT10=
EXTT11=
EXTT12=
EXTT13=
PLAYORDER=
